<svg width="276" height="175" viewBox="0 0 276 175" fill="none" xmlns="http://www.w3.org/2000/svg">
<g clip-path="url(#clip0_1116:2914)">
<path d="M75.5542 81.4305C73.8752 79.7492 73.8752 77.3409 75.5542 75.7051C77.2332 74.0238 79.6383 74.0238 81.3173 75.7051C82.9963 77.3863 82.9963 79.7946 81.3173 81.4305C79.5929 83.1117 77.1878 83.1117 75.5542 81.4305Z" fill="white" fill-opacity="0.35"/>
<path d="M75.198 81.7814C73.33 79.9085 73.3229 77.1832 75.2028 75.3493C77.0771 73.4749 79.7976 73.4757 81.6711 75.3517C83.5423 77.2254 83.5494 79.9537 81.6664 81.7885C79.754 83.653 77.0331 83.6675 75.198 81.7814Z" stroke="white" stroke-opacity="0.35"/>
<path d="M56.7471 26.6729C58.4261 28.3085 58.4714 30.7166 56.8378 32.3977C55.2042 34.0789 52.7992 34.1243 51.1202 32.4886C49.4412 30.8529 49.3958 28.3994 51.0294 26.7637C52.6176 25.0826 55.0681 25.0372 56.7471 26.6729Z" fill="white" fill-opacity="0.35"/>
<path d="M57.096 26.3147C58.9705 28.1409 59.0243 30.8652 57.1964 32.7462C55.3722 34.6234 52.6503 34.6773 50.7713 32.8468C48.9011 31.0248 48.8387 28.2547 50.6707 26.4153C52.4535 24.5335 55.2215 24.4886 57.096 26.3147Z" stroke="white" stroke-opacity="0.35"/>
<path d="M75.5497 56.9153C73.916 55.234 73.916 52.8256 75.5951 51.1897C77.2741 49.5538 79.6792 49.5538 81.3129 51.2352C82.9466 52.9165 82.9466 55.3248 81.2221 56.9607C79.5885 58.642 77.1834 58.5966 75.5497 56.9153Z" fill="white" fill-opacity="0.35"/>
<path d="M75.1911 57.2637C73.3706 55.3901 73.3641 52.6653 75.2462 50.8316C77.1177 49.0082 79.8399 49.0017 81.6715 50.8867C83.4908 52.7591 83.499 55.483 81.5736 57.3165C79.7362 59.2001 77.0112 59.1369 75.1911 57.2637Z" stroke="white" stroke-opacity="0.35"/>
<path d="M100.148 81.566C98.4232 79.9302 98.3325 77.5218 99.9207 75.8405C101.554 74.1138 104.005 74.0229 105.684 75.6133C107.408 77.2492 107.499 79.6575 105.911 81.3388C104.232 83.0656 101.827 83.1564 100.148 81.566Z" fill="white" fill-opacity="0.35"/>
<path d="M99.8037 81.929L99.8035 81.9288C97.8871 80.1107 97.7722 77.3868 99.5572 75.4972L99.5575 75.4969C101.374 73.5773 104.14 73.4626 106.028 75.2503L106.028 75.2506C107.944 77.0686 108.059 79.7925 106.274 81.6822L106.274 81.6822L106.269 81.6874C104.411 83.5978 101.694 83.7193 99.8037 81.929Z" stroke="white" stroke-opacity="0.35"/>
<path d="M56.844 2.24986C58.4776 3.93102 58.4776 6.33915 56.7986 7.97487C55.1196 9.65602 52.7146 9.61058 51.0809 7.97487C49.4473 6.29371 49.4473 3.88558 51.1263 2.24986C52.7599 0.56871 55.2104 0.56871 56.844 2.24986Z" fill="white" fill-opacity="0.35"/>
<path d="M50.7272 8.32819L50.7271 8.32823L50.7223 8.32331C48.9034 6.45143 48.8953 3.73001 50.7725 1.8965C52.6025 0.0181952 55.3742 0.0198317 57.2026 1.90142C59.0223 3.77411 59.0296 6.49709 57.15 8.33062C55.272 10.2086 52.5516 10.1549 50.7272 8.32819Z" stroke="white" stroke-opacity="0.35"/>
<path d="M75.2959 26.9439C76.8842 25.1717 79.3346 24.9899 81.0136 26.5349C82.7834 28.1253 82.9649 30.5792 81.422 32.2605C79.8338 34.0327 77.4287 34.2144 75.7043 32.6694C73.9346 31.079 73.753 28.6706 75.2959 26.9439Z" fill="white" fill-opacity="0.35"/>
<path d="M74.9231 26.6107L74.9236 26.6102C76.6817 24.6484 79.4494 24.4181 81.35 26.165C83.3069 27.9255 83.5357 30.6944 81.7924 32.5964C80.0312 34.5595 77.3124 34.7816 75.3707 33.0418L75.3701 33.0413C73.4078 31.2779 73.1856 28.5553 74.9231 26.6107Z" stroke="white" stroke-opacity="0.35"/>
<path d="M100.099 57.0521C98.3744 55.4162 98.2836 53.0079 99.8718 51.3266C101.505 49.5999 103.91 49.509 105.589 51.0994C107.314 52.7352 107.404 55.1436 105.816 56.8249C104.183 58.5516 101.778 58.6879 100.099 57.0521Z" fill="white" fill-opacity="0.35"/>
<path d="M99.5084 50.9833L99.5086 50.983C101.324 49.0637 104.046 48.9484 105.933 50.7364L105.933 50.7367C107.85 52.5547 107.965 55.2786 106.18 57.1682L106.179 57.1685C104.371 59.0801 101.647 59.2566 99.7522 57.4125C97.8381 55.5945 97.7241 52.8721 99.5084 50.9833Z" stroke="white" stroke-opacity="0.35"/>
<path d="M124.453 81.3848C122.82 79.7037 122.865 77.2955 124.544 75.6597C126.223 74.024 128.628 74.0694 130.262 75.7506C131.895 77.4318 131.85 79.84 130.171 81.4757C128.537 83.1115 126.132 83.1115 124.453 81.3848Z" fill="white" fill-opacity="0.35"/>
<path d="M124.095 81.7334L124.095 81.7333C122.267 79.8522 122.321 77.1279 124.195 75.3016C126.074 73.4709 128.796 73.5248 130.62 75.4022C132.447 77.2824 132.394 80.0052 130.522 81.8315C128.688 83.6652 125.964 83.6561 124.095 81.7334Z" stroke="white" stroke-opacity="0.35"/>
<path d="M81.2544 2.24743C82.9334 3.92885 82.9334 6.33735 81.2544 7.97332C79.5753 9.65473 77.2156 9.65473 75.5366 7.97332C73.8576 6.2919 73.8576 3.8834 75.5366 2.24743C77.1702 0.566021 79.5753 0.566021 81.2544 2.24743Z" fill="white" fill-opacity="0.35"/>
<path d="M81.6082 1.89413C83.4786 3.76721 83.4864 6.49418 81.6058 8.32903C80.6817 9.25325 79.5489 9.73437 78.3955 9.73438C77.2411 9.73438 76.1073 9.25241 75.1828 8.32662C73.3132 6.45435 73.3045 3.72893 75.1828 1.89411C77.0154 0.0127859 79.7382 0.021471 81.6082 1.89413Z" stroke="white" stroke-opacity="0.35"/>
<path d="M99.8757 32.3965C98.2421 30.7153 98.2875 28.307 100.012 26.6712C101.691 25.0354 104.141 25.0808 105.73 26.8075C107.363 28.4888 107.318 30.897 105.593 32.5329C103.914 34.1687 101.509 34.1232 99.8757 32.3965Z" fill="white" fill-opacity="0.35"/>
<path d="M99.5148 32.7426C97.6889 30.8611 97.7434 28.1362 99.6653 26.3107C101.541 24.4857 104.311 24.5321 106.093 26.464C107.916 28.3453 107.861 31.0687 105.94 32.8933C104.061 34.722 101.338 34.6674 99.5148 32.7426Z" stroke="white" stroke-opacity="0.35"/>
<path d="M124.448 57.0061C122.769 55.3702 122.724 52.9164 124.357 51.2805C125.991 49.5992 128.441 49.5538 130.12 51.1896C131.799 52.8255 131.845 55.2339 130.211 56.9152C128.532 58.5965 126.127 58.6419 124.448 57.0061Z" fill="white" fill-opacity="0.35"/>
<path d="M130.57 57.2636L130.57 57.2636L130.565 57.2685C128.699 59.1369 125.981 59.1975 124.099 57.3642C122.228 55.5412 122.167 52.7691 124.001 50.9296C125.826 49.0545 128.591 49.0016 130.469 50.8315C132.344 52.6579 132.398 55.3824 130.57 57.2636Z" stroke="white" stroke-opacity="0.35"/>
<path d="M105.576 2.11305C107.3 3.74897 107.391 6.15741 105.803 7.83877C104.169 9.56558 101.764 9.65646 100.085 8.06598C98.3607 6.43006 98.27 4.02162 99.8582 2.34026C101.446 0.613451 103.897 0.522571 105.576 2.11305Z" fill="white" fill-opacity="0.35"/>
<path d="M105.92 1.75006L105.92 1.75032C107.836 3.56842 107.951 6.29239 106.166 8.18212L106.166 8.18239C104.35 10.1018 101.629 10.217 99.7412 8.42897L99.741 8.42871C97.8254 6.61139 97.7098 3.88897 99.4924 1.99934C101.267 0.0726719 104.036 -0.0344868 105.92 1.75006Z" stroke="white" stroke-opacity="0.35"/>
<path d="M124.447 32.5337C122.768 30.8977 122.677 28.4438 124.31 26.8079C125.944 25.1265 128.394 25.0357 130.073 26.6716C131.752 28.3075 131.843 30.716 130.21 32.3973C128.531 34.0787 126.126 34.1696 124.447 32.5337Z" fill="white" fill-opacity="0.35"/>
<path d="M130.568 32.7458L130.568 32.7458L130.563 32.7506C128.705 34.6117 125.987 34.7323 124.098 32.8918C122.234 31.0762 122.112 28.3039 123.954 26.457C125.771 24.5893 128.537 24.4763 130.422 26.3135C132.289 28.1325 132.403 30.857 130.568 32.7458Z" stroke="white" stroke-opacity="0.35"/>
<path d="M124.344 7.92867C122.71 6.24714 122.756 3.83845 124.435 2.20237C126.114 0.566288 128.519 0.611737 130.152 2.29327C131.786 3.9748 131.741 6.38348 130.062 8.01957C128.428 9.65565 126.023 9.6102 124.344 7.92867Z" fill="white" fill-opacity="0.35"/>
<path d="M123.99 8.28196L123.99 8.28199L123.985 8.27708C122.157 6.39565 122.211 3.67087 124.086 1.84427C125.965 0.013236 128.687 0.0671473 130.511 1.94486C132.338 3.82546 132.285 6.54868 130.413 8.37527C128.573 10.2156 125.852 10.147 123.99 8.28196Z" stroke="white" stroke-opacity="0.35"/>
<path d="M51.1867 81.566C49.4623 79.9302 49.3715 77.5218 50.9598 75.8405C52.5934 74.1138 55.0439 74.0229 56.7229 75.6133C58.4473 77.2492 58.538 79.6575 56.9498 81.3388C55.2708 83.0656 52.8657 83.1564 51.1867 81.566Z" fill="white" fill-opacity="0.35"/>
<path d="M50.8428 81.929L50.8426 81.9288C48.9261 80.1107 48.8112 77.3868 50.5963 75.4972L50.5966 75.4969C52.4127 73.5773 55.1794 73.4626 57.0667 75.2503L57.067 75.2506C58.9834 77.0686 59.0983 79.7925 57.3132 81.6822L57.3133 81.6822L57.3083 81.6874C55.4506 83.5978 52.7328 83.7193 50.8428 81.929Z" stroke="white" stroke-opacity="0.35"/>
<path d="M51.1553 57.0061C49.4763 55.3702 49.4309 52.9164 51.0646 51.2805C52.6982 49.5992 55.1487 49.5538 56.8277 51.1896C58.5068 52.8255 58.5521 55.2339 56.9185 56.9152C55.2395 58.5965 52.8344 58.6419 51.1553 57.0061Z" fill="white" fill-opacity="0.35"/>
<path d="M57.2771 57.2636L57.2771 57.2636L57.2723 57.2685C55.4064 59.1369 52.6881 59.1975 50.8064 57.3642C48.9354 55.5412 48.8738 52.7692 50.7084 50.9296C52.5328 49.0545 55.2985 49.0016 57.1767 50.8315C59.0512 52.6579 59.105 55.3824 57.2771 57.2636Z" stroke="white" stroke-opacity="0.35"/>
<path d="M197.814 81.4305C196.135 79.7492 196.135 77.3409 197.814 75.7051C199.493 74.0238 201.899 74.0238 203.578 75.7051C205.257 77.3863 205.257 79.7946 203.578 81.4305C201.899 83.1117 199.493 83.1117 197.814 81.4305Z" fill="white" fill-opacity="0.35"/>
<path d="M197.46 81.7838C195.59 79.9108 195.582 77.184 197.463 75.3493C199.337 73.4749 202.058 73.4757 203.932 75.3517C205.802 77.2247 205.81 79.9515 203.929 81.7862C202.055 83.6606 199.334 83.6598 197.46 81.7838Z" stroke="white" stroke-opacity="0.35"/>
<path d="M154.539 2.20292C156.218 3.88426 156.218 6.29268 154.539 7.92857C152.86 9.60991 150.501 9.6099 148.822 7.97401C147.143 6.29267 147.143 3.88427 148.822 2.24838C150.455 0.567038 152.906 0.567027 154.539 2.20292Z" fill="white" fill-opacity="0.35"/>
<path d="M148.473 8.33213L148.473 8.33216L148.468 8.32732C146.598 6.45512 146.59 3.72979 148.468 1.89504C150.297 0.0175686 153.065 0.018692 154.893 1.84962C156.764 3.72263 156.772 6.44953 154.891 8.28431C153.967 9.20864 152.835 9.68877 151.683 9.69525C150.531 9.70172 149.398 9.23382 148.473 8.33213Z" stroke="white" stroke-opacity="0.35"/>
<path d="M178.934 26.6729C180.613 28.3085 180.659 30.7166 179.025 32.3977C177.392 34.0789 174.987 34.1243 173.308 32.4886C171.629 30.8529 171.583 28.3994 173.217 26.7637C174.851 25.0826 177.256 25.0372 178.934 26.6729Z" fill="white" fill-opacity="0.35"/>
<path d="M179.283 26.3147C181.158 28.1409 181.212 30.8652 179.384 32.7462C177.56 34.6234 174.838 34.6773 172.959 32.8468C171.088 31.024 171.026 28.2522 172.861 26.4128C174.685 24.538 177.405 24.485 179.283 26.3147Z" stroke="white" stroke-opacity="0.35"/>
<path d="M197.735 56.9153C196.102 55.234 196.102 52.8256 197.781 51.1897C199.46 49.5538 201.865 49.5538 203.498 51.2351C205.132 52.9165 205.132 55.3248 203.407 56.9607C201.819 58.642 199.414 58.5966 197.735 56.9153Z" fill="white" fill-opacity="0.35"/>
<path d="M197.381 57.2686L197.381 57.2686L197.377 57.2637C195.556 55.39 195.55 52.6653 197.432 50.8316C199.303 49.0081 202.025 49.0017 203.857 50.8867C205.675 52.7583 205.684 55.4806 203.762 57.314C201.963 59.2073 199.239 59.1289 197.381 57.2686Z" stroke="white" stroke-opacity="0.35"/>
<path d="M222.409 81.5661C220.685 79.9302 220.594 77.522 222.182 75.8407C223.816 74.114 226.267 74.0231 227.946 75.6135C229.67 77.2493 229.761 79.6576 228.173 81.3389C226.494 83.0656 224.088 83.1564 222.409 81.5661Z" fill="white" fill-opacity="0.35"/>
<path d="M222.066 81.9291L222.065 81.9288C220.149 80.1108 220.034 77.387 221.819 75.4973L221.819 75.4971C223.635 73.5775 226.402 73.4628 228.29 75.2505L228.29 75.2507C230.206 77.0687 230.321 79.7926 228.536 81.6822L228.536 81.6823L228.531 81.6874C226.673 83.5978 223.956 83.7193 222.066 81.9291Z" stroke="white" stroke-opacity="0.35"/>
<path d="M178.994 2.24986C180.628 3.93102 180.628 6.33915 178.949 7.97487C177.27 9.65602 174.865 9.61058 173.231 7.97487C171.598 6.29371 171.598 3.88558 173.277 2.24986C174.956 0.56871 177.361 0.56871 178.994 2.24986Z" fill="white" fill-opacity="0.35"/>
<path d="M172.878 8.32819L172.877 8.32822L172.873 8.32331C171.053 6.45062 171.046 3.72765 172.925 1.89412C174.797 0.0225372 177.521 0.0162811 179.353 1.90142C181.173 3.77411 181.18 6.49708 179.3 8.33061C177.422 10.2086 174.702 10.1549 172.878 8.32819Z" stroke="white" stroke-opacity="0.35"/>
<path d="M197.483 26.9439C199.072 25.1717 201.522 24.9899 203.201 26.5349C204.971 28.1253 205.152 30.5792 203.609 32.2605C202.021 34.0327 199.616 34.2144 197.892 32.6694C196.122 31.079 195.941 28.6706 197.483 26.9439Z" fill="white" fill-opacity="0.35"/>
<path d="M197.111 26.6107L197.111 26.6102C198.869 24.6484 201.637 24.4181 203.537 26.165C205.494 27.9254 205.723 30.6944 203.98 32.5964C202.219 34.5595 199.5 34.7816 197.558 33.0418L197.558 33.0413C195.595 31.2779 195.373 28.5553 197.111 26.6107Z" stroke="white" stroke-opacity="0.35"/>
<path d="M222.284 57.0521C220.56 55.4163 220.469 53.008 222.057 51.3267C223.691 49.6 226.096 49.5091 227.775 51.0995C229.499 52.7353 229.59 55.1436 228.001 56.8249C226.368 58.5516 223.963 58.6879 222.284 57.0521Z" fill="white" fill-opacity="0.35"/>
<path d="M221.694 50.9834L221.694 50.9831C223.51 49.0638 226.231 48.9486 228.118 50.7365L228.119 50.7368C230.035 52.5548 230.15 55.2786 228.365 57.1682L228.365 57.1685C226.556 59.0801 223.833 59.2566 221.938 57.4125C220.024 55.5945 219.91 52.8722 221.694 50.9834Z" stroke="white" stroke-opacity="0.35"/>
<path d="M246.713 81.3848C245.079 79.7036 245.125 77.2954 246.804 75.6597C248.483 74.0239 250.888 74.0694 252.522 75.7506C254.155 77.4318 254.11 79.84 252.431 81.4757C250.752 83.1115 248.347 83.1115 246.713 81.3848Z" fill="white" fill-opacity="0.35"/>
<path d="M246.352 81.7309C244.527 79.8499 244.581 77.127 246.455 75.3015C248.334 73.4709 251.056 73.5248 252.88 75.4021C254.708 77.2832 254.654 80.0076 252.78 81.8339C250.908 83.6574 248.184 83.6641 246.352 81.7309Z" stroke="white" stroke-opacity="0.35"/>
<path d="M203.405 2.24743C205.084 3.92885 205.084 6.33735 203.405 7.97332C201.726 9.65473 199.321 9.65473 197.687 7.97332C196.008 6.2919 196.008 3.8834 197.687 2.24743C199.321 0.566021 201.771 0.566021 203.405 2.24743Z" fill="white" fill-opacity="0.35"/>
<path d="M197.333 1.8941C199.162 0.0163145 201.932 0.0171328 203.761 1.89655C205.629 3.76957 205.636 6.49498 203.756 8.32904C201.885 10.2001 199.163 10.2072 197.331 8.32419C195.464 6.45199 195.456 3.72814 197.333 1.8941Z" stroke="white" stroke-opacity="0.35"/>
<path d="M222.063 32.3965C220.43 30.7153 220.475 28.307 222.199 26.6712C223.878 25.0354 226.329 25.0808 227.917 26.8075C229.551 28.4887 229.505 30.897 227.781 32.5329C226.102 34.1687 223.697 34.1232 222.063 32.3965Z" fill="white" fill-opacity="0.35"/>
<path d="M221.702 32.7426C219.876 30.8611 219.931 28.1361 221.853 26.3107C223.728 24.4857 226.499 24.532 228.28 26.464C230.104 28.3453 230.048 31.0687 228.127 32.8933C226.248 34.722 223.526 34.6674 221.702 32.7426Z" stroke="white" stroke-opacity="0.35"/>
<path d="M246.634 57.0061C244.955 55.3702 244.909 52.9164 246.543 51.2805C248.177 49.5992 250.627 49.5538 252.307 51.1896C253.986 52.8255 254.031 55.2339 252.397 56.9152C250.718 58.5965 248.313 58.6419 246.634 57.0061Z" fill="white" fill-opacity="0.35"/>
<path d="M252.756 57.2636L252.756 57.2636L252.751 57.2685C250.885 59.1369 248.167 59.1975 246.285 57.3642C244.414 55.5413 244.352 52.7691 246.187 50.9296C248.011 49.0545 250.777 49.0016 252.655 50.8315C254.53 52.6579 254.584 55.3824 252.756 57.2636Z" stroke="white" stroke-opacity="0.35"/>
<path d="M227.726 2.11305C229.45 3.74897 229.541 6.15741 227.953 7.83877C226.319 9.56558 223.914 9.65646 222.235 8.06598C220.511 6.43006 220.42 4.02162 222.009 2.34026C223.597 0.613451 226.047 0.522571 227.726 2.11305Z" fill="white" fill-opacity="0.35"/>
<path d="M228.07 1.75007L228.07 1.75032C229.986 3.56843 230.101 6.29239 228.316 8.18211L228.316 8.18238C226.5 10.1018 223.779 10.217 221.892 8.42897L221.891 8.42871C219.976 6.61138 219.86 3.88895 221.643 1.99933C223.417 0.0726709 226.186 -0.0344858 228.07 1.75007Z" stroke="white" stroke-opacity="0.35"/>
<path d="M246.634 32.5337C244.955 30.8978 244.864 28.444 246.498 26.8082C248.131 25.1268 250.582 25.036 252.261 26.6718C253.939 28.3077 254.03 30.7161 252.397 32.3974C250.718 34.0787 248.313 34.1696 246.634 32.5337Z" fill="white" fill-opacity="0.35"/>
<path d="M252.755 32.7458L252.755 32.7458L252.75 32.7507C250.892 34.6117 248.174 34.7323 246.285 32.8918C244.422 31.0763 244.3 28.3041 246.142 26.4573C247.959 24.5896 250.724 24.4766 252.609 26.3137C254.476 28.1327 254.59 30.8571 252.755 32.7458Z" stroke="white" stroke-opacity="0.35"/>
<path d="M246.494 7.92867C244.861 6.24714 244.906 3.83845 246.585 2.20237C248.264 0.566288 250.669 0.611737 252.303 2.29327C253.937 3.9748 253.891 6.38348 252.212 8.01957C250.533 9.65565 248.128 9.6102 246.494 7.92867Z" fill="white" fill-opacity="0.35"/>
<path d="M246.136 8.27709C244.308 6.39565 244.362 3.67086 246.236 1.84426C248.115 0.013238 250.837 0.0671492 252.662 1.94485C254.489 3.82628 254.436 6.55107 252.561 8.37767C250.682 10.2087 247.96 10.1548 246.136 8.27709Z" stroke="white" stroke-opacity="0.35"/>
<path d="M148.96 81.4748C147.281 79.839 147.236 77.4307 148.869 75.7494C150.503 74.0682 152.953 74.0227 154.587 75.6585C156.266 77.2944 156.311 79.7027 154.678 81.384C153.044 83.0652 150.639 83.1107 148.96 81.4748Z" fill="white" fill-opacity="0.35"/>
<path d="M148.611 81.833C146.737 80.0066 146.683 77.2822 148.511 75.401C150.331 73.5271 153.101 73.4654 154.938 75.3028C156.811 77.1291 156.863 79.852 155.036 81.7324C153.212 83.6098 150.49 83.6637 148.611 81.833Z" stroke="white" stroke-opacity="0.35"/>
<path d="M154.575 51.1897C156.254 52.8256 156.254 55.234 154.621 56.9153C152.942 58.5966 150.582 58.642 148.903 56.9607C147.224 55.3248 147.179 52.871 148.858 51.2351C150.491 49.5538 152.896 49.5538 154.575 51.1897Z" fill="white" fill-opacity="0.35"/>
<path d="M154.979 57.2637L154.979 57.2637L154.975 57.2686C154.052 58.192 152.921 58.686 151.768 58.699C150.614 58.7119 149.478 58.2429 148.552 57.3164C146.683 55.4933 146.622 52.7205 148.504 50.8818C150.335 49.0017 153.055 49.0097 154.924 50.8316C156.806 52.6653 156.8 55.39 154.979 57.2637Z" stroke="white" stroke-opacity="0.35"/>
<path d="M173.446 81.5661C171.722 79.9302 171.631 77.522 173.22 75.8407C174.853 74.114 177.304 74.0231 178.983 75.6135C180.707 77.2493 180.798 79.6576 179.21 81.3389C177.531 83.0656 175.171 83.1564 173.446 81.5661Z" fill="white" fill-opacity="0.35"/>
<path d="M173.107 81.9336L173.107 81.9336L173.102 81.9288C171.186 80.1108 171.071 77.387 172.856 75.4973L172.856 75.4971C174.673 73.5775 177.439 73.4628 179.327 75.2505L179.327 75.2507C181.243 77.0687 181.358 79.7926 179.573 81.6822L179.573 81.6823L179.568 81.6874C178.649 82.6332 177.521 83.1507 176.365 83.196C175.207 83.2413 174.06 82.8117 173.107 81.9336Z" stroke="white" stroke-opacity="0.35"/>
<path d="M154.447 26.5819C156.171 28.2178 156.262 30.6262 154.673 32.3075C153.04 34.0343 150.635 34.1252 148.956 32.5347C147.232 30.8988 147.141 28.4904 148.729 26.8091C150.317 25.1277 152.768 25.0369 154.447 26.5819Z" fill="white" fill-opacity="0.35"/>
<path d="M154.785 26.214L154.785 26.2139L154.791 26.2191C156.707 28.0372 156.822 30.7612 155.037 32.6509L155.037 32.6511C153.221 34.5705 150.5 34.6858 148.612 32.8977L148.612 32.8975C146.696 31.0794 146.581 28.3554 148.366 26.4657C150.139 24.5882 152.902 24.4812 154.785 26.214Z" stroke="white" stroke-opacity="0.35"/>
<path d="M173.343 57.0061C171.664 55.3702 171.618 52.9164 173.252 51.2805C174.886 49.5992 177.336 49.5538 179.015 51.1896C180.694 52.8255 180.74 55.2339 179.106 56.9152C177.382 58.5965 174.977 58.6419 173.343 57.0061Z" fill="white" fill-opacity="0.35"/>
<path d="M179.465 57.2636L179.465 57.2637L179.455 57.2732C177.551 59.1293 174.834 59.2042 172.991 57.3618C171.123 55.5388 171.062 52.7683 172.896 50.9296C174.72 49.0545 177.486 49.0016 179.364 50.8315C181.239 52.6579 181.293 55.3824 179.465 57.2636Z" stroke="white" stroke-opacity="0.35"/>
</g>
<defs>
<clipPath id="clip0_1116:2914">
<rect width="279" height="175" fill="white" transform="matrix(1 0 0 -1 0 175)"/>
</clipPath>
</defs>
</svg>
