<svg width="95" height="98" viewBox="0 0 95 98" fill="none" xmlns="http://www.w3.org/2000/svg">
<g clip-path="url(#clip0_1116:2957)">
<path d="M13.8141 81.4305C12.1349 79.7492 12.1349 77.3409 13.8141 75.7051C15.4933 74.0238 17.8986 74.0238 19.5778 75.7051C21.257 77.3863 21.257 79.7946 19.5778 81.4305C17.8986 83.1117 15.4933 83.1117 13.8141 81.4305Z" fill="white" fill-opacity="0.35"/>
<path d="M13.4603 81.7838C11.5897 79.9108 11.5818 77.184 13.4627 75.3493C15.3371 73.4749 18.0579 73.4757 19.9315 75.3517C21.8022 77.2247 21.81 79.9515 19.9291 81.7862C18.0547 83.6606 15.334 83.6598 13.4603 81.7838Z" stroke="white" stroke-opacity="0.35"/>
<path d="M38.3625 105.992C36.6835 104.356 36.5928 101.902 38.2264 100.266C39.8599 98.585 42.3103 98.4941 43.9893 100.13C45.6682 101.766 45.759 104.174 44.1254 105.855C42.4464 107.582 40.0414 107.628 38.3625 105.992Z" fill="white" fill-opacity="0.35"/>
<path d="M44.484 106.204L44.4839 106.204C42.618 108.123 39.8963 108.184 38.0136 106.35C36.1503 104.534 36.0284 101.762 37.8701 99.9154C39.6871 98.0477 42.4527 97.9348 44.3382 99.7719C46.2051 101.591 46.3191 104.315 44.484 106.204Z" stroke="white" stroke-opacity="0.35"/>
<path d="M13.7352 56.9153C12.1016 55.234 12.1016 52.8256 13.7806 51.1897C15.4596 49.5538 17.8646 49.5538 19.4982 51.2351C21.1319 52.9165 21.1319 55.3248 19.4075 56.9607C17.8193 58.642 15.4142 58.5966 13.7352 56.9153Z" fill="white" fill-opacity="0.35"/>
<path d="M13.3814 57.2686L13.3814 57.2686L13.3766 57.2637C11.5561 55.39 11.5496 52.6653 13.4317 50.8316C15.3031 49.0081 18.0253 49.0017 19.8569 50.8867C21.6753 52.7583 21.6843 55.4806 19.7615 57.314C17.9633 59.2073 15.2391 59.1289 13.3814 57.2686Z" stroke="white" stroke-opacity="0.35"/>
<path d="M38.4094 81.5661C36.6849 79.9302 36.5942 77.522 38.1825 75.8407C39.8161 74.114 42.2666 74.0231 43.9457 75.6135C45.6701 77.2493 45.7609 79.6576 44.1726 81.3389C42.4935 83.0656 40.0884 83.1564 38.4094 81.5661Z" fill="white" fill-opacity="0.35"/>
<path d="M38.0655 81.9291L38.0652 81.9288C36.1488 80.1108 36.0339 77.387 37.819 75.4973L37.8193 75.4971C39.6354 73.5775 42.4022 73.4628 44.2895 75.2505L44.2898 75.2507C46.2063 77.0687 46.3212 79.7926 44.536 81.6822L44.5361 81.6823L44.531 81.6874C42.6734 83.5978 39.9556 83.7193 38.0655 81.9291Z" stroke="white" stroke-opacity="0.35"/>
<path d="M62.8019 105.992C61.1228 104.356 61.0774 101.903 62.7111 100.267C64.3448 98.5852 66.7954 98.5398 68.4745 100.176C70.1536 101.812 70.1989 104.22 68.5652 105.901C66.8861 107.583 64.481 107.628 62.8019 105.992Z" fill="white" fill-opacity="0.35"/>
<path d="M68.9238 106.25L68.9238 106.25L68.919 106.255C67.053 108.123 64.3347 108.184 62.453 106.35C60.5819 104.527 60.5203 101.755 62.3549 99.9157C64.1793 98.0405 66.9452 97.9877 68.8234 99.8176C70.698 101.644 70.7518 104.369 68.9238 106.25Z" stroke="white" stroke-opacity="0.35"/>
<path d="M13.4834 26.9439C15.0716 25.1717 17.5221 24.9899 19.2011 26.5349C20.9708 28.1253 21.1523 30.5792 19.6095 32.2605C18.0212 34.0327 15.6162 34.2144 13.8918 32.6694C12.1221 31.079 11.9406 28.6706 13.4834 26.9439Z" fill="white" fill-opacity="0.35"/>
<path d="M13.1106 26.6107L13.1111 26.6102C14.8692 24.6484 17.6368 24.4181 19.5374 26.165C21.4943 27.9254 21.7231 30.6944 19.9799 32.5964C18.2186 34.5595 15.4999 34.7816 13.5582 33.0418L13.5576 33.0413C11.5953 31.2779 11.3731 28.5553 13.1106 26.6107Z" stroke="white" stroke-opacity="0.35"/>
<path d="M38.2842 57.0521C36.56 55.4163 36.4692 53.008 38.0573 51.3267C39.6908 49.6 42.0957 49.5091 43.7746 51.0995C45.4988 52.7353 45.5896 55.1436 44.0015 56.8249C42.368 58.5516 39.9631 58.6879 38.2842 57.0521Z" fill="white" fill-opacity="0.35"/>
<path d="M37.6939 50.9834L37.6941 50.9831C39.5098 49.0638 42.231 48.9486 44.1185 50.7365L44.1187 50.7368C46.035 52.5548 46.1499 55.2786 44.3649 57.1682L44.3647 57.1685C42.5563 59.0801 39.8327 59.2566 37.9377 57.4125C36.0237 55.5945 35.9097 52.8722 37.6939 50.9834Z" stroke="white" stroke-opacity="0.35"/>
<path d="M62.713 81.3848C61.0794 79.7036 61.1247 77.2954 62.8038 75.6597C64.4829 74.0239 66.888 74.0694 68.5217 75.7506C70.1553 77.4318 70.11 79.84 68.4309 81.4757C66.7519 83.1115 64.3467 83.1115 62.713 81.3848Z" fill="white" fill-opacity="0.35"/>
<path d="M62.3521 81.7309C60.5266 79.8499 60.5811 77.127 62.4549 75.3015C64.334 73.4709 67.056 73.5248 68.8802 75.4021C70.7082 77.2832 70.6544 80.0076 68.7798 81.8339C66.908 83.6574 64.1835 83.6641 62.3521 81.7309Z" stroke="white" stroke-opacity="0.35"/>
<path d="M19.4046 2.24743C21.0836 3.92885 21.0836 6.33735 19.4046 7.97332C17.7256 9.65473 15.3206 9.65473 13.687 7.97332C12.008 6.2919 12.008 3.8834 13.687 2.24743C15.3206 0.566021 17.771 0.566021 19.4046 2.24743Z" fill="white" fill-opacity="0.35"/>
<path d="M13.3331 1.8941C15.1624 0.0163145 17.9324 0.0171328 19.7608 1.89655C21.6288 3.76957 21.6358 6.49498 19.756 8.32904C17.8853 10.2001 15.1625 10.2072 13.3307 8.32419C11.4636 6.45199 11.4557 3.72814 13.3331 1.8941Z" stroke="white" stroke-opacity="0.35"/>
<path d="M38.0632 32.3965C36.4296 30.7153 36.4749 28.307 38.1993 26.6712C39.8783 25.0354 42.3288 25.0808 43.917 26.8075C45.5506 28.4887 45.5053 30.897 43.7809 32.5329C42.1019 34.1687 39.6968 34.1232 38.0632 32.3965Z" fill="white" fill-opacity="0.35"/>
<path d="M37.7023 32.7426C35.8764 30.8611 35.9309 28.1361 37.8528 26.3107C39.7284 24.4857 42.4987 24.532 44.2804 26.464C46.1037 28.3453 46.0484 31.0687 44.1274 32.8933C42.2481 34.722 39.5256 34.6674 37.7023 32.7426Z" stroke="white" stroke-opacity="0.35"/>
<path d="M62.6339 57.0061C60.9548 55.3702 60.9094 52.9164 62.5432 51.2805C64.1769 49.5992 66.6274 49.5538 68.3065 51.1896C69.9856 52.8255 70.031 55.2339 68.3973 56.9152C66.7182 58.5965 64.313 58.6419 62.6339 57.0061Z" fill="white" fill-opacity="0.35"/>
<path d="M68.7559 57.2636L68.7559 57.2636L68.7511 57.2685C66.8851 59.1369 64.1667 59.1975 62.285 57.3642C60.4139 55.5413 60.3523 52.7691 62.1869 50.9296C64.0114 49.0545 66.7772 49.0016 68.6555 50.8315C70.5301 52.6579 70.5838 55.3824 68.7559 57.2636Z" stroke="white" stroke-opacity="0.35"/>
<path d="M43.7259 2.11305C45.4502 3.74897 45.541 6.15741 43.9528 7.83877C42.3193 9.56558 39.9143 9.65646 38.2354 8.06598C36.5111 6.43006 36.4204 4.02162 38.0085 2.34026C39.5967 0.613451 42.047 0.522571 43.7259 2.11305Z" fill="white" fill-opacity="0.35"/>
<path d="M44.0698 1.75007L44.0701 1.75032C45.9864 3.56843 46.1012 6.29239 44.3163 8.18211L44.316 8.18238C42.5003 10.1018 39.779 10.217 37.8916 8.42897L37.8913 8.42871C35.9758 6.61138 35.8602 3.88895 37.6428 1.99933C39.417 0.0726709 42.186 -0.0344858 44.0698 1.75007Z" stroke="white" stroke-opacity="0.35"/>
<path d="M62.6339 32.5337C60.9551 30.8978 60.8643 28.444 62.4978 26.8082C64.1313 25.1268 66.5816 25.036 68.2605 26.6718C69.9394 28.3077 70.0302 30.7161 68.3966 32.3974C66.7177 34.0787 64.3128 34.1696 62.6339 32.5337Z" fill="white" fill-opacity="0.35"/>
<path d="M68.7552 32.7458L68.7553 32.7458L68.7504 32.7507C66.8921 34.6117 64.1739 34.7323 62.285 32.8918C60.4218 31.0763 60.2999 28.3041 62.1416 26.4573C63.9585 24.5896 66.724 24.4766 68.6094 26.3137C70.4763 28.1327 70.5903 30.8571 68.7552 32.7458Z" stroke="white" stroke-opacity="0.35"/>
<path d="M62.4943 7.92867C60.8606 6.24714 60.906 3.83845 62.5851 2.20237C64.2641 0.566288 66.6692 0.611737 68.3029 2.29327C69.9366 3.9748 69.8912 6.38348 68.2122 8.01957C66.5331 9.65565 64.128 9.6102 62.4943 7.92867Z" fill="white" fill-opacity="0.35"/>
<path d="M62.1357 8.27709C60.3078 6.39565 60.3615 3.67086 62.2361 1.84426C64.1152 0.013238 66.8373 0.0671492 68.6615 1.94485C70.4894 3.82628 70.4357 6.55107 68.5611 8.37767C66.682 10.2087 63.96 10.1548 62.1357 8.27709Z" stroke="white" stroke-opacity="0.35"/>
<path d="M13.814 105.947C12.1349 104.266 12.1349 101.857 13.814 100.221C15.493 98.54 17.8981 98.54 19.5771 100.221C21.2561 101.903 21.2561 104.311 19.5771 105.947C17.8981 107.583 15.493 107.583 13.814 105.947Z" fill="white" fill-opacity="0.35"/>
<path d="M13.465 106.305L13.465 106.305L13.4602 106.3C11.5897 104.427 11.5819 101.7 13.4626 99.8656C15.3368 97.9911 18.0574 97.9919 19.9309 99.868C21.8022 101.742 21.8092 104.47 19.926 106.305C18.0528 108.13 15.3382 108.13 13.465 106.305Z" stroke="white" stroke-opacity="0.35"/>
<path d="M92.692 2.20299C94.3711 3.88431 94.3711 6.2927 92.692 7.92859C91.013 9.60991 88.6532 9.6099 86.9741 7.97402C85.2951 6.2927 85.2951 3.88432 86.9741 2.24844C88.6078 0.567117 91.0583 0.567107 92.692 2.20299Z" fill="white" fill-opacity="0.35"/>
<path d="M86.6252 8.33215L86.6252 8.33218L86.6203 8.32733C84.7507 6.45515 84.742 3.72984 86.6203 1.8951C88.4494 0.0176497 91.2174 0.0187731 93.0458 1.84967C94.9163 3.72267 94.9242 6.44955 93.0434 8.28432C92.1192 9.20864 90.9872 9.68877 89.8359 9.69525C88.684 9.70172 87.5507 9.23383 86.6252 8.33215Z" stroke="white" stroke-opacity="0.35"/>
<path d="M93.1491 105.719C91.5608 107.492 89.1555 107.673 87.431 106.128C85.6611 104.538 85.4796 102.084 87.0226 100.403C88.6109 98.6304 91.0616 98.4486 92.7407 99.9937C94.5106 101.539 94.6921 103.993 93.1491 105.719Z" fill="white" fill-opacity="0.35"/>
<path d="M93.522 106.053L93.5215 106.053C91.7602 108.018 89.0399 108.241 87.0974 106.501L87.0968 106.5C85.1378 104.74 84.9081 101.969 86.6522 100.067C88.4097 98.1078 91.1744 97.8777 93.0744 99.6213C95.0423 101.343 95.2554 104.113 93.522 106.053Z" stroke="white" stroke-opacity="0.35"/>
<path d="M87.2217 81.4748C85.5427 79.839 85.4974 77.4307 87.131 75.7495C88.7646 74.0682 91.215 74.0228 92.8487 75.6586C94.5277 77.2944 94.5731 79.7027 92.9394 81.384C91.3058 83.0652 88.9007 83.1107 87.2217 81.4748Z" fill="white" fill-opacity="0.35"/>
<path d="M86.8728 81.833C84.9983 80.0066 84.9445 77.2822 86.7724 75.401C88.5932 73.5272 91.3626 73.4655 93.2 75.3029C95.0722 77.1292 95.1251 79.8521 93.298 81.7324C91.4738 83.6098 88.7519 83.6637 86.8728 81.833Z" stroke="white" stroke-opacity="0.35"/>
<path d="M92.7632 51.1898C94.4422 52.8256 94.4422 55.234 92.8086 56.9153C91.1295 58.5966 88.7698 58.642 87.0908 56.9607C85.4118 55.3249 85.3664 52.8711 87.0454 51.2352C88.6791 49.5539 91.0842 49.5539 92.7632 51.1898Z" fill="white" fill-opacity="0.35"/>
<path d="M93.1672 57.2637L93.1672 57.2638L93.1624 57.2686C92.2402 58.1921 91.1089 58.686 89.9553 58.699C88.8012 58.7119 87.6658 58.2429 86.7394 57.3165C84.8706 55.4933 84.8094 52.7206 86.6916 50.8819C88.5231 49.0018 91.2422 49.0098 93.1121 50.8316C94.9942 52.6653 94.9877 55.3901 93.1672 57.2637Z" stroke="white" stroke-opacity="0.35"/>
<path d="M92.6345 26.5819C94.3588 28.2178 94.4496 30.6262 92.8613 32.3075C91.2277 34.0343 88.8227 34.1252 87.1437 32.5347C85.4193 30.8988 85.3286 28.4904 86.9168 26.8091C88.505 25.1277 90.9555 25.0369 92.6345 26.5819Z" fill="white" fill-opacity="0.35"/>
<path d="M92.973 26.2139L92.9731 26.2139L92.9786 26.2191C94.895 28.0372 95.0099 30.7612 93.2248 32.6509L93.2246 32.6512C91.4087 34.5705 88.6874 34.6858 86.7998 32.8977L86.7995 32.8975C84.8831 31.0794 84.7683 28.3554 86.5533 26.4657C88.3269 24.5882 91.09 24.4812 92.973 26.2139Z" stroke="white" stroke-opacity="0.35"/>
</g>
<defs>
<clipPath id="clip0_1116:2957">
<rect width="95" height="175" fill="white" transform="matrix(1 0 0 -1 0 175)"/>
</clipPath>
</defs>
</svg>
